<svg width="288" height="221" xmlns="http://www.w3.org/2000/svg" xmlns:xlink="http://www.w3.org/1999/xlink"><defs><path id="a" d="M.98.941h207.47V220.94H.98z"/></defs><g fill="none" fill-rule="evenodd"><path d="M258.83.941h-82.89c-6.135 0-11.104 4.971-11.104 11.106 0 1.91.418 3.704 1.326 5.274l41.604 72.061a11.096 11.096 0 009.621 5.569c4.117 0 7.698-2.244 9.619-5.569l41.6-72.061c.908-1.57 1.33-3.364 1.33-5.274 0-6.135-4.969-11.106-11.106-11.106M277.117 6.96a4.829 4.829 0 004.821 4.816 4.824 4.824 0 004.81-4.816 4.818 4.818 0 00-4.81-4.813 4.823 4.823 0 00-4.821 4.813zm-1.252 0a6.071 6.071 0 016.073-6.071A6.065 6.065 0 01288 6.96a6.065 6.065 0 01-6.062 6.07 6.071 6.071 0 01-6.073-6.07z" fill="#636466"/><g transform="translate(76)"><mask id="b" fill="#fff"><use xlink:href="#a"/></mask><path d="M206.746 4.889c-.247-.119-1.386-.067-1.696-.067V6.82h1.163c.409 0 .604-.063.716-.207.067-.103.132-.215.132-.664 0-.671-.108-.948-.315-1.06zm1.473 5.116h-.578c-.225 0-.346-.026-.511-.219l-1.642-2.058h-.438v1.946c0 .251-.102.331-.315.331h-.401c-.275 0-.367-.052-.367-.331V4.221c0-.292.174-.303.367-.303h1.755c1.001 0 1.206.056 1.564.41.315.327.466.892.466 1.704 0 1.027-.414 1.6-1.346 1.668l1.565 1.867c.18.219.147.438-.119.438zM126.809 104.639l-.455-.792-52.349-90.672C69.641 5.614 61.275.941 51.982.941H9.551C4.82.941.98 4.782.98 9.511c0 1.473.341 2.882 1.024 4.063l51.787 89.696a27.004 27.004 0 013.724 13.737c0 4.861-1.28 9.422-3.517 13.371L8.972 208.373c-.683 1.175-1.023 2.588-1.023 4.061 0 4.733 3.837 8.566 8.572 8.566h43.536c9.291 0 17.658-4.669 22.018-12.228l.9-1.557 43.298-74.998.807-1.393c2.207-3.83 3.227-8.204 3.227-12.854 0-4.848-1.243-9.426-3.498-13.331z" fill="#636466" mask="url(#b)"/></g><path d="M43.158 115.427c-3.563 0-6.723 1.182-8.901 2.236v-12.188c0-1.253-.528-2.838-2.57-2.838h-2.963c-1.911 0-2.9.593-2.9 2.838v39.874c0 1.576.526 2.627 2.374 2.627h3.489c2.042 0 2.57-1.118 2.57-2.961v-15.103c0-4.725.975-6.34 5.631-6.34 4.406 0 4.987 1.683 4.987 5.691v1.234h-.016c.01.633.012 1.358.012 2.166v12.352c0 1.978.659 2.961 2.373 2.961h3.495c2.04 0 2.567-1.118 2.567-2.961v-20.226c0-4.292-2.044-9.362-10.148-9.362zm23.547 13.044c0-4.804.991-6.452 5.734-6.452 4.482 0 5.071 1.711 5.071 5.795v1.254H66.705v-.597zm16.476 12.396c-.791 0-1.583.326-2.305.458-2.439.529-5.143 1.054-8.041 1.054-1.583 0-3.033-.33-3.955-.724-2.042-.919-2.241-3.492-2.175-6.79h16.079c2.309 0 2.767-.391 2.767-4.013 0-4.224-.392-8.372-2.434-11.337-1.911-2.703-5.209-4.088-10.678-4.088-5.8 0-9.426 1.517-11.4 4.351-2.047 2.897-2.64 6.787-2.64 12.583 0 6.531.922 10.814 3.692 13.382 2.176 2.042 5.734 3.093 10.678 3.093 2.833 0 6.723-.262 9.948-.86 2.046-.326 2.376-1.377 2.376-2.898 0-.724 0-1.516-.131-2.173-.199-.856-.792-2.038-1.781-2.038zM18.979 123.332h-7.117v13.247c0 3.094.136 4.284.398 4.809.199.335.528.529.988.529 1.848 0 3.886-.986 5.405-.986 1.449 0 1.784 1.118 1.784 1.839v2.372c0 2.44-.662 3.101-2.771 3.296-2.11.199-3.559.33-5.736.33-6.988 0-8.501-2.571-8.501-10.413v-15.023H1.584c-1.251 0-1.584-.86-1.584-1.911v-2.838c0-1.648.659-2.173 1.779-2.173h1.65v-5.338c0-2.241.922-2.902 2.833-2.902h2.967c2.04 0 2.633 1.648 2.633 2.902v5.338h6.465c1.448 0 2.236.199 2.236 2.114v2.301c0 2.241-.396 2.507-1.584 2.507M174.131 200.226l5.052 8.55 4.774 2.759c.665.381.799.875.426 1.516l-.547.959c-.426.733-.82.947-1.596.498l-4.597-2.655-10.478-.123c-.298.008-.573-.036-.774-.152-.551-.318-.414-.919-.207-1.278l.691-1.194c.384-.668.756-.748 1.287-.74l7.176.143-3.697-6.225c-.272-.451-.368-.804.018-1.469l.566-.976c.332-.581.796-.669 1.221-.422.263.152.538.55.685.809M196.514 192.041l-.537.932c-.382.665-.858.716-1.511.401l-9.374-4.64c.387.457.945 1.078 1.379 1.564 1.672 1.974 3.497 4.004 4.572 5.369.428.542.583.988.163 1.716l-.337.581c-.422.733-.871.801-1.556.701-1.715-.251-4.415-.768-6.961-1.234-.65-.107-1.44-.326-2.032-.43l8.706 5.8c.601.41.792.844.411 1.505l-.542.935c-.398.689-.868 1.035-1.65.498l-12.278-8.603c-.76-.529-.569-1.066-.259-1.6l.702-1.222c.361-.62.743-.82 1.344-.737 2.523.363 6.938 1.223 10.33 1.812-2.209-2.631-5.167-6.03-6.737-8.033-.37-.482-.392-.907-.034-1.529l.705-1.221c.308-.533.68-.972 1.516-.577l13.586 6.333c.859.402.792.987.394 1.679M203.477 180.39c-.487.999-.761 1.572-1.35 2.596-.479.824-1.119 1.787-1.779 2.467-2.542 2.656-5.606 1.804-9.451-.414-6.53-3.773-6.557-6.544-4.055-10.875.592-1.022.955-1.552 1.572-2.467.593-.876.951-.995 1.448-.709l.731.422c.798.461.987.752.575 1.457-.474.828-.816 1.162-1.492 2.34-.412.709-1.016 1.903-1.092 2.6-.174 1.644 1.555 2.702 4.108 4.171 2.512 1.453 4.542 2.452 6.011.724.299-.362.705-.959 1.101-1.643.678-1.179.8-1.644 1.274-2.472.41-.705.754-.684 1.557-.223l.732.422c.487.283.571.657.11 1.604M197.15 165.331l4.214 4.809c.297-.514.623-1.126.993-1.768.399-.692.691-1.146 1.061-1.791l-6.268-1.25zm14.475.537l-.705 1.223c-.399.685-.846.696-1.383.593l-3.34-.621a105.89 105.89 0 01-1.508 2.655c-.537.932-1.009 1.756-1.492 2.54l2.106 2.404c.486.545.717.915.279 1.667l-.59 1.028c-.437.757-.7.748-1.035.557-.131-.076-.359-.298-.584-.577l-10.08-11.89c-.547-.645-.718-1.067-.242-1.887l.525-.911c.474-.824.928-.888 1.737-.748l15.718 2.678c.139.02.275.039.389.108.551.318.411.824.205 1.181z" fill="#636466"/></g></svg>
