<svg version="1.1" id="Layer_1" xmlns="http://www.w3.org/2000/svg" x="0" y="0" viewBox="0 0 181 235" xml:space="preserve"><style>.st0{fill:#603913}.st1{fill:#fff}.st2{fill:#92278f}.st3{fill:#5c2d91}.st5{fill:#0089cf}.st6{fill:#0061af}</style><ellipse class="st0" cx="90.5" cy="72.5" rx="72" ry="54"/><path d="M90.5 112.5c-3.7 0-7.4-1.4-10.3-4.2-.4-.4-.4-1 0-1.4s1-.4 1.4 0c4.9 4.9 12.8 4.9 17.7 0 .4-.4 1-.4 1.4 0s.4 1 0 1.4c-2.8 2.8-6.5 4.2-10.2 4.2zM70.5 66.3c2.5 0 4.5 2 4.5 4.5v4.5c0 2.5-2 4.5-4.5 4.5s-4.5-2-4.5-4.5v-4.5c0-2.4 2-4.5 4.5-4.5z"/><circle class="st1" cx="70.5" cy="70.7" r="1.8"/><g><path d="M110.5 66.3c2.5 0 4.5 2 4.5 4.5v4.5c0 2.5-2 4.5-4.5 4.5s-4.5-2-4.5-4.5v-4.5c0-2.4 2-4.5 4.5-4.5z"/><circle class="st1" cx="110.5" cy="70.7" r="1.8"/></g><path d="M95 96c-.6 0-1-.4-1-1 0-1.9-1.6-3.5-3.5-3.5S87 93.1 87 95c0 .6-.4 1-1 1s-1-.4-1-1c0-3 2.5-5.5 5.5-5.5S96 92 96 95c0 .6-.4 1-1 1z"/><g><path class="st2" d="M48.8 179l-4.5 7.8c-2.5 4.3-8 5.8-12.3 3.3-4.3-2.5-5.8-8-3.3-12.3l4.5-7.8 15.6 9z"/><path class="st3" d="M36.5 191.8c-1.6 0-3.3-.4-4.7-1.3-4.5-2.6-6.1-8.4-3.5-13l4.8-8.2 16.5 9.5-4.8 8.2c-1.3 2.2-3.3 3.8-5.8 4.4-.9.3-1.7.4-2.5.4zm-3.1-21.1l-4.3 7.4c-1.1 2-1.4 4.3-.8 6.5.6 2.2 2 4 4 5.2 2 1.1 4.3 1.4 6.5.8 2.2-.6 4-2 5.2-4l4.3-7.4-14.9-8.5z"/><path class="st2" d="M132.2 179l4.5 7.8c2.5 4.3 8 5.8 12.3 3.3 4.3-2.5 5.8-8 3.3-12.3l-4.5-7.8-15.6 9z"/><path class="st3" d="M144.5 191.8c-.8 0-1.7-.1-2.5-.3-2.5-.7-4.5-2.2-5.8-4.4l-4.8-8.2 16.5-9.5 4.8 8.2c2.6 4.5 1.1 10.4-3.5 13-1.4.7-3 1.2-4.7 1.2zm-11.6-12.6l4.3 7.4c1.1 2 3 3.4 5.2 4 2.2.6 4.5.3 6.5-.8 4.1-2.3 5.5-7.6 3.1-11.6l-4.3-7.4-14.8 8.4z"/><path d="M99.5 225.5h27v9h-27z"/><path d="M126.5 235h-27c-.3 0-.5-.2-.5-.5v-9c0-.3.2-.5.5-.5h27c.3 0 .5.2.5.5v9c0 .3-.2.5-.5.5zm-26.5-1h26v-8h-26v8zM54.5 225.5h27v9h-27z"/><path d="M81.5 235h-27c-.3 0-.5-.2-.5-.5v-9c0-.3.2-.5.5-.5h27c.3 0 .5.2.5.5v9c0 .3-.2.5-.5.5zM55 234h26v-8H55v8z"/><g><path d="M126.5 187h-72c-1.4 0-2.5 1.1-2.5 2.5v36c0 1.4 1.1 2.5 2.5 2.5h27c1.4 0 2.5-1.1 2.5-2.5V201h13v24.5c0 1.4 1.1 2.5 2.5 2.5h27c1.4 0 2.5-1.1 2.5-2.5v-36c0-1.4-1.1-2.5-2.5-2.5z" fill="#8b5e3c"/><path class="st0" d="M126.5 228.5h-27c-1.7 0-3-1.3-3-3v-24h-12v24c0 1.7-1.3 3-3 3h-27c-1.7 0-3-1.3-3-3v-36c0-1.7 1.3-3 3-3h72c1.7 0 3 1.3 3 3v36c0 1.7-1.3 3-3 3zm-43-28h14v25c0 1.1.9 2 2 2h27c1.1 0 2-.9 2-2v-36c0-1.1-.9-2-2-2h-72c-1.1 0-2 .9-2 2v36c0 1.1.9 2 2 2h27c1.1 0 2-.9 2-2v-25z"/></g><g><path class="st5" d="M152.1 167.5l-22.5-39c-.1-.2-.2-.3-.3-.5-.1-.1-.2-.3-.3-.4-.2-.2-.3-.5-.5-.7-.1-.1-.2-.2-.3-.4-.2-.2-.4-.5-.7-.7-.1-.1-.2-.2-.2-.3-.2-.2-.5-.4-.7-.6l-.3-.3c-.2-.2-.5-.4-.7-.5-.1-.1-.3-.2-.4-.3-.2-.1-.4-.3-.7-.4l-.6-.3-.6-.3c-.2-.1-.5-.2-.7-.3-.2-.1-.4-.1-.5-.2-.3-.1-.5-.2-.8-.3-.2 0-.3-.1-.5-.1-.3-.1-.5-.1-.7-.2-.2 0-.4-.1-.6-.1-.2 0-.5-.1-.7-.1H62.4c-.3 0-.5.1-.7.1-.2 0-.4.1-.6.1-.3 0-.5.1-.8.2-.2 0-.3.1-.5.1-.3.1-.5.2-.8.3-.2.1-.3.1-.5.2-.3.1-.5.2-.8.3-.2.1-.3.2-.5.2-.2.1-.4.2-.6.4-.2.1-.4.2-.6.4-.2.1-.3.2-.5.3-.2.1-.4.3-.6.5-.1.1-.3.2-.4.4-.2.2-.4.4-.6.5l-.4.4c-.2.2-.3.4-.5.6-.1.2-.3.3-.4.5-.1.2-.3.4-.4.5-.1.2-.3.4-.4.6-.1.1-.2.3-.3.4l-22.5 39c-.7 1.1-.8 2.5-.5 3.8.3 1.3 1.2 2.4 2.3 3l15.6 9c1 .6 2.1.8 3.2.6v5.6c0 2.8 2.2 5 5 5h72c2.8 0 5-2.2 5-5v-5.6c1.1.2 2.2 0 3.2-.6l15.6-9c1.1-.7 2-1.8 2.3-3 .3-1.3.1-2.7-.6-3.8z"/><path class="st6" d="M152.6 167.2l-22.5-39c-.1-.2-.2-.3-.3-.6-.1-.2-.2-.3-.3-.5-.2-.2-.4-.5-.5-.7-.1-.1-.2-.2-.3-.4-.2-.2-.4-.5-.7-.7l-.3-.3c-.2-.2-.5-.4-.7-.7l-.3-.3c-.2-.2-.5-.4-.7-.5-.1-.1-.3-.2-.4-.3-.2-.1-.4-.3-.7-.4l-.6-.3-.6-.3c-.2-.1-.5-.2-.7-.3-.2-.1-.4-.1-.5-.2-.3-.1-.5-.2-.8-.3-.2 0-.4-.1-.6-.1-.3-.1-.5-.1-.8-.2-.2 0-.4-.1-.6-.1-.3 0-.5-.1-.8-.1H62.4c-.3 0-.5.1-.7.1-.2 0-.4.1-.6.1-.3.1-.6.1-.8.2-.2 0-.3.1-.5.1-.3.1-.6.2-.8.3-.2.1-.3.1-.5.2-.3.1-.5.2-.8.3-.2.1-.4.2-.5.3-.2.1-.5.2-.7.4-.2.1-.4.2-.6.4-.2.1-.4.2-.5.4-.2.2-.4.3-.6.5-.2.1-.3.2-.4.4l-.6.6-.4.4c-.2.2-.3.4-.5.6-.1.2-.3.3-.4.5-.1.2-.3.4-.4.6-.1.2-.3.4-.4.6-.1.1-.2.3-.3.4l-22.5 39c-.7 1.3-.9 2.8-.6 4.2.4 1.4 1.3 2.6 2.6 3.3l15.6 9c.9.5 1.9.8 3 .7v5c0 2.9 2.2 5.2 5 5.5h72c3 0 5.5-2.5 5.5-5.5v-5c1 0 2.1-.2 3-.7l15.6-9c1.3-.7 2.2-1.9 2.6-3.3.3-1.5.1-3-.6-4.3zM81 194H55v-10.8L68.2 172H81v22zm20.3-22.3h12.8l13.2 11.2v10.8h-26v-22zm50.8-.6c-.3 1.2-1.1 2.1-2.1 2.7l-15.6 9c-.8.4-1.6.6-2.5.6v-26.5c0-.3-.2-.5-.5-.5s-.5.2-.5.5v32.6c0 1.9-1.1 3.5-2.7 4.1v-11.2l-13.8-11.8h-13.2v-26.5c0-.3-.2-.5-.5-.5s-.5.2-.5.5V194H82v-49.5c0-.3-.2-.5-.5-.5s-.5.2-.5.5V171H67.8L54 182.8V194c-2.2-.3-4-2.1-4-4.4V157c0-.3-.2-.5-.5-.5s-.5.2-.5.5v26.5c-.9 0-1.7-.2-2.5-.6l-15.6-9c-1-.6-1.8-1.6-2.1-2.7-.3-1.1-.1-2.4.4-3.4l22.5-39c.1-.1.2-.3.2-.4.1-.2.3-.4.4-.6.1-.2.3-.4.4-.5.1-.2.3-.3.4-.5.2-.2.3-.4.5-.5l.4-.4c.2-.2.4-.3.6-.5.1-.1.3-.2.4-.3.2-.2.4-.3.6-.4.2-.1.3-.2.5-.3l.6-.3.6-.3c.1-.1.3-.2.5-.2.2-.1.5-.2.7-.3.2-.1.3-.1.5-.2s.5-.2.8-.2c.2 0 .3-.1.5-.1.3-.1.5-.1.8-.2.2 0 .4-.1.6-.1.2 0 .4-.1.7-.1H118.7c.2 0 .5 0 .7.1.2 0 .4.1.6.1.2 0 .5.1.7.2.2 0 .4.1.5.1.3.1.5.2.8.2.2.1.3.1.5.2s.4.2.7.3c.2.1.4.2.5.3l.6.3c.2.1.4.2.6.4.1.1.3.2.4.3.2.2.5.3.7.5l.3.3c.2.2.5.4.7.6l.2.2c.2.3.4.5.6.7.1.1.2.2.3.4.2.2.3.4.5.7.1.1.2.3.3.4.1.2.2.4.3.5l22.5 39c.6.5.8 1.8.4 2.9z"/><path class="st6" d="M58.5 167h19v-19h-19v19zm1-18h17v17h-17v-17z"/><g><path class="st1" d="M121.4 150.6h-5.2c-.4 0-.7.3-.7.7 0 .1 0 .2.1.3l2.6 4.5c.1.2.3.3.6.3s.5-.1.6-.3l2.6-4.5c.1-.1.1-.2.1-.3 0-.4-.3-.7-.7-.7M122.5 151c0-.2.2-.4.4-.4s.4.2.4.4-.2.4-.4.4-.4-.2-.4-.4m.1 0c0 .2.1.3.3.3.2 0 .3-.1.3-.3 0-.2-.1-.3-.3-.3-.2 0-.3.1-.3.3"/><path class="st1" d="M123 151.2l-.2-.1v.1-.3h.2v.1c0 .1 0 .1-.1.1l.1.1m-.1-.3h-.1v.1h.1v-.1M113.4 157zm4.5.1l-3.2-5.6-.1-.1c-.3-.5-.8-.8-1.4-.8h-2.7c-.3 0-.5.2-.5.5 0 .1 0 .2.1.3l3.2 5.6c.1.3.2.5.2.9 0 .3-.1.6-.2.8l-2.8 4.9c0 .1-.1.2-.1.3 0 .3.2.5.5.5h2.7c.6 0 1.1-.3 1.4-.8l.1-.1 2.7-4.7.1-.1c.1-.2.2-.5.2-.8.1-.3 0-.6-.2-.8"/><path class="st1" d="M110.5 159.4h-.1c-.2 0-.3.1-.5.1h-.2c-.1-.1-.1-.2-.1-.4h1c.1 0 .2 0 .2-.3s0-.5-.2-.7c-.1-.2-.3-.3-.7-.3-.4 0-.6.1-.7.3-.1.2-.2.4-.2.8s.1.7.2.8c.1.1.4.2.7.2.2 0 .4 0 .6-.1.1 0 .1-.1.1-.2v-.1c0-.1-.1-.1-.1-.1m-1.1-.8c0-.3.1-.4.4-.4.3 0 .3.1.3.4v.1l-.7-.1zm-1.4-.8c-.2 0-.4.1-.6.1v-.8c0-.1 0-.2-.2-.2h-.2c-.1 0-.2 0-.2.2v2.5c0 .1 0 .2.1.2h.2c.1 0 .2-.1.2-.2v-.9c0-.3.1-.4.4-.4.3 0 .3.1.3.4v1c0 .1 0 .2.1.2h.2c.1 0 .2-.1.2-.2v-1.3c.1-.3 0-.6-.5-.6M106.4 158.3h-.4v1.1h.1c.1 0 .2-.1.3-.1.1 0 .1.1.1.1v.1c0 .2 0 .2-.2.2h-.4c-.4 0-.5-.2-.5-.7v-.9h-.1c-.1 0-.1-.1-.1-.1 0-.1 0-.1.1-.1h.1v-.3c0-.1.1-.2.2-.2h.2c.1 0 .2.1.2.2v.3h.4c.1 0 .1 0 .1.1v.1c0 .2 0 .2-.1.2M116.1 163.1l.3.5.3.2s.1.1 0 .1v.1s-.1.1-.1 0l-.3-.2h-.7v-.2h.5l-.2-.4v-.2c.1 0 .2 0 .2.1 0-.1 0 0 0 0M117.5 162.6l-.1.1-.6-.3.1.1c.1.1.2.3.3.3v.1s-.1.1-.1 0c-.1 0-.3 0-.4-.1h-.1l.5.4v.2s-.1.1-.1 0l-.8-.5v-.2s0-.1.1 0c.2 0 .4.1.6.1-.1-.2-.3-.4-.4-.5v-.2s0-.1.1 0l.8.4c.2 0 .2 0 .1.1M118 161.8c0 .1 0 .1-.1.2 0 .1-.1.1-.1.2-.2.2-.4.1-.6 0-.4-.2-.4-.4-.3-.7 0-.1.1-.1.1-.2s.1-.1.1 0c0 0 .1 0 0 .1 0 .1-.1.1-.1.1s-.1.1-.1.2.1.2.3.3c.2.1.3.2.4 0 0 0 0-.1.1-.1 0-.1.1-.1.1-.2h.1l.1.1M118.5 160.9l-.1.1h-.2c0 .1-.1.1-.1.2s-.1.1-.1.2l.1.2v.2h-.1l-.6-.7v-.2c0-.1.1-.1.1 0h1m-.9 0l.3.3s0-.1.1-.1c0 0 0-.1.1-.1l-.5-.1z"/></g></g><g><path class="st5" d="M90.5.5C40.8.5.5 32.7.5 72.5s40.3 72 90 72 90-32.2 90-72-40.3-72-90-72zm0 126c-39.8 0-72-24.2-72-54s32.2-54 72-54 72 24.2 72 54-32.2 54-72 54z"/><path class="st6" d="M90.5 145C40.6 145 0 112.5 0 72.5S40.6 0 90.5 0 181 32.5 181 72.5 140.4 145 90.5 145zm0-144C41.1 1 1 33.1 1 72.5S41.1 144 90.5 144 180 111.9 180 72.5 139.9 1 90.5 1z"/><path class="st1" d="M175.7 64.5c0-4.9-2.5-9.2-6.3-11.7.2-1 .4-2 .4-3.1 0-6.7-4.7-12.3-11-13.7-.5-7.2-6.6-13-13.9-13-.6 0-1.2 0-1.7.1-1.7-5.8-7.1-10-13.4-10-2.1 0-4.1.5-5.9 1.3-2.3-4.6-7-7.7-12.5-7.7-3.6 0-6.9 1.4-9.4 3.6-2.5-3.6-6.7-5.9-11.4-5.9s-8.9 2.3-11.4 5.9c-2.5-2.3-5.8-3.6-9.4-3.6-5.5 0-10.2 3.2-12.5 7.7-1.8-.8-3.8-1.3-5.9-1.3-6.3 0-11.7 4.2-13.4 10-.6-.1-1.1-.1-1.7-.1-7.4 0-13.4 5.7-13.9 13-6.3 1.4-11 7-11 13.7 0 1.1.1 2.1.4 3.1-3.8 2.5-6.3 6.8-6.3 11.7 0 3 .9 5.7 2.5 8-1.6 2.3-2.5 5-2.5 8 0 4.9 2.5 9.2 6.3 11.7-.2 1-.4 2-.4 3.1 0 6.7 4.7 12.3 11 13.7.5 7.2 6.6 13 13.9 13 .6 0 1.2 0 1.7-.1 1.7 5.8 7.1 10 13.4 10 2.1 0 4.1-.5 5.9-1.3 2.3 4.6 7 7.7 12.5 7.7 3.6 0 6.9-1.4 9.4-3.6 2.5 3.6 6.7 5.9 11.4 5.9s8.9-2.3 11.4-5.9c2.5 2.3 5.8 3.6 9.4 3.6 5.5 0 10.2-3.2 12.5-7.7 1.8.8 3.8 1.3 5.9 1.3 6.3 0 11.7-4.2 13.4-10 .6.1 1.1.1 1.7.1 7.4 0 13.4-5.7 13.9-13 6.3-1.4 11-7 11-13.7 0-1.1-.1-2.1-.4-3.1 3.8-2.5 6.3-6.8 6.3-11.7 0-3-.9-5.7-2.5-8 1.6-2.3 2.5-5 2.5-8zm-44.3 39.4c-.6-.1-1.1-.1-1.7-.1-5.5 0-10.2 3.2-12.5 7.7-1.8-.8-3.8-1.3-5.9-1.3-4.7 0-8.9 2.3-11.4 5.9-2.5-2.3-5.8-3.6-9.4-3.6s-6.9 1.4-9.4 3.6c-2.5-3.6-6.7-5.9-11.4-5.9-2.1 0-4.1.5-5.9 1.3-2.3-4.6-7-7.7-12.5-7.7-.6 0-1.2 0-1.7.1-1.4-4.8-5.4-8.6-10.4-9.7-.3-4.4-2.7-8.3-6.2-10.7.2-1 .4-2 .4-3.1 0-3-.9-5.7-2.5-8 1.6-2.3 2.5-5 2.5-8 0-1.1-.1-2.1-.4-3.1 3.5-2.3 5.9-6.2 6.2-10.7 5-1.1 9-4.8 10.4-9.7.6.1 1.1.1 1.7.1 5.5 0 10.2-3.2 12.5-7.7 1.8.8 3.8 1.3 5.9 1.3 4.7 0 8.9-2.3 11.4-5.9 2.5 2.3 5.8 3.6 9.4 3.6s6.9-1.4 9.4-3.6c2.5 3.6 6.7 5.9 11.4 5.9 2.1 0 4.1-.5 5.9-1.3 2.3 4.6 7 7.7 12.5 7.7.6 0 1.2 0 1.7-.1 1.4 4.8 5.4 8.6 10.4 9.7.3 4.4 2.7 8.3 6.2 10.7-.2 1-.4 2-.4 3.1 0 3 .9 5.7 2.5 8-1.6 2.3-2.5 5-2.5 8 0 1.1.1 2.1.4 3.1-3.5 2.3-5.9 6.2-6.2 10.7-4.9 1.1-8.9 4.9-10.4 9.7z"/><path d="M126.5 43c-9.5 0-17.9 4.5-23.3 11.5H77.8C72.4 47.5 64 43 54.5 43 38.2 43 25 56.2 25 72.5S38.2 102 54.5 102c13.1 0 24.3-8.6 28.1-20.5h15.8c3.8 11.9 15 20.5 28.1 20.5 16.3 0 29.5-13.2 29.5-29.5S142.8 43 126.5 43zm-72 54C41 97 30 86 30 72.5S41 48 54.5 48 79 59 79 72.5 68 97 54.5 97zm72 0C113 97 102 86 102 72.5S113 48 126.5 48 151 59 151 72.5 140 97 126.5 97z"/></g><linearGradient id="SVGID_1_" gradientUnits="userSpaceOnUse" x1="90.5" y1="97" x2="90.5" y2="48"><stop offset="0" stop-color="#92278f"/><stop offset="1" stop-color="#00aeef"/></linearGradient><path d="M54.5 97C41 97 30 86 30 72.5S41 48 54.5 48 79 59 79 72.5 68 97 54.5 97zm72 0C113 97 102 86 102 72.5S113 48 126.5 48 151 59 151 72.5 140 97 126.5 97z" fill="url(#SVGID_1_)"/></g></svg>
