<?xml version="1.0" encoding="utf-8"?>
<!-- Generator: Adobe Illustrator 24.1.2, SVG Export Plug-In . SVG Version: 6.00 Build 0)  -->
<svg version="1.1" id="Layer_1" xmlns="http://www.w3.org/2000/svg" xmlns:xlink="http://www.w3.org/1999/xlink" x="0px" y="0px"
	 viewBox="0 0 181 235" style="enable-background:new 0 0 181 235;" xml:space="preserve">
<style type="text/css">
	.st0{fill:#0089CF;}
	.st1{clip-path:url(#SVGID_2_);}
	.st2{fill:none;stroke:#0061AF;stroke-miterlimit:10;}
	.st3{fill:#0061AF;}
	.st4{fill:#8B5E3C;}
	.st5{fill:#603913;}
	.st6{fill:#00AB95;}
	.st7{fill:#006A6B;}
	.st8{fill:#FFFFFF;}
	.st9{fill:url(#SVGID_3_);}
	.st10{fill:url(#SVGID_4_);}
	.st11{fill:url(#SVGID_5_);}
</style>
<g>
	<g>
		<g>
			<g>
				<g>
					<ellipse class="st0" cx="90.5" cy="72.5" rx="72" ry="54"/>
				</g>
			</g>
		</g>
	</g>
</g>
<g>
	<defs>
		<ellipse id="SVGID_1_" cx="90.5" cy="72.5" rx="72" ry="54"/>
	</defs>
	<clipPath id="SVGID_2_">
		<use xlink:href="#SVGID_1_"  style="overflow:visible;"/>
	</clipPath>
	<g class="st1">
		<g>
			<line class="st2" x1="92.8" y1="18.5" x2="92.8" y2="126.5"/>
			<line class="st2" x1="101.8" y1="18.5" x2="101.8" y2="126.5"/>
			<line class="st2" x1="110.8" y1="18.5" x2="110.8" y2="126.5"/>
			<line class="st2" x1="119.8" y1="18.5" x2="119.8" y2="126.5"/>
			<line class="st2" x1="128.8" y1="18.5" x2="128.8" y2="126.5"/>
			<line class="st2" x1="137.8" y1="18.5" x2="137.8" y2="126.5"/>
			<line class="st2" x1="146.8" y1="18.5" x2="146.8" y2="126.5"/>
			<line class="st2" x1="155.8" y1="18.5" x2="155.8" y2="126.5"/>
			<line class="st2" x1="20.8" y1="18.5" x2="20.8" y2="126.5"/>
			<line class="st2" x1="29.8" y1="18.5" x2="29.8" y2="126.5"/>
			<line class="st2" x1="38.8" y1="18.5" x2="38.8" y2="126.5"/>
			<line class="st2" x1="47.8" y1="18.5" x2="47.8" y2="126.5"/>
			<line class="st2" x1="56.8" y1="18.5" x2="56.8" y2="126.5"/>
			<line class="st2" x1="65.8" y1="18.5" x2="65.8" y2="126.5"/>
			<line class="st2" x1="74.8" y1="18.5" x2="74.8" y2="126.5"/>
			<line class="st2" x1="83.8" y1="18.5" x2="83.8" y2="126.5"/>
		</g>
		<g>
			<line class="st2" x1="97.3" y1="18.5" x2="97.3" y2="126.5"/>
			<line class="st2" x1="106.3" y1="18.5" x2="106.3" y2="126.5"/>
			<line class="st2" x1="115.3" y1="18.5" x2="115.3" y2="126.5"/>
			<line class="st2" x1="124.3" y1="18.5" x2="124.3" y2="126.5"/>
			<line class="st2" x1="133.3" y1="18.5" x2="133.3" y2="126.5"/>
			<line class="st2" x1="142.3" y1="18.5" x2="142.3" y2="126.5"/>
			<line class="st2" x1="151.3" y1="18.5" x2="151.3" y2="126.5"/>
			<line class="st2" x1="160.3" y1="18.5" x2="160.3" y2="126.5"/>
			<line class="st2" x1="25.3" y1="18.5" x2="25.3" y2="126.5"/>
			<line class="st2" x1="34.3" y1="18.5" x2="34.3" y2="126.5"/>
			<line class="st2" x1="43.3" y1="18.5" x2="43.3" y2="126.5"/>
			<line class="st2" x1="52.3" y1="18.5" x2="52.3" y2="126.5"/>
			<line class="st2" x1="61.3" y1="18.5" x2="61.3" y2="126.5"/>
			<line class="st2" x1="70.3" y1="18.5" x2="70.3" y2="126.5"/>
			<line class="st2" x1="79.3" y1="18.5" x2="79.3" y2="126.5"/>
			<line class="st2" x1="88.3" y1="18.5" x2="88.3" y2="126.5"/>
		</g>
	</g>
</g>
<g>
	<g>
		<g>
			<g>
				<path class="st3" d="M72.5,90.5h5.3c1.9-5.2,6.8-9,12.7-9h-18V90.5z"/>
				<path class="st3" d="M90.5,81.5c5.9,0,10.9,3.8,12.7,9h5.3v-9H90.5z"/>
			</g>
			<path class="st3" d="M72.5,49.9v4.6h18C83.6,54.5,77.3,52.8,72.5,49.9z"/>
			<path class="st3" d="M108.5,49.9v4.6h-18C97.4,54.5,103.7,52.8,108.5,49.9z"/>
			<path class="st3" d="M170.6,65c0-4.6-2.3-8.6-5.9-11c0.2-0.9,0.3-1.9,0.3-2.9c0-6.3-4.4-11.6-10.4-12.9
				c-0.5-6.8-6.2-12.2-13.1-12.2c-0.6,0-1.1,0-1.6,0.1c-1.6-5.4-6.7-9.4-12.6-9.4c-2,0-3.9,0.5-5.6,1.2c-2.2-4.3-6.6-7.3-11.8-7.3
				c-3.4,0-6.5,1.3-8.8,3.4c-2.4-3.4-6.3-5.6-10.7-5.6s-8.3,2.2-10.7,5.6c-2.3-2.1-5.4-3.4-8.8-3.4c-5.1,0-9.6,3-11.8,7.3
				c-1.7-0.8-3.6-1.2-5.6-1.2c-5.9,0-11,4-12.6,9.4C40.5,26.1,40,26,39.4,26c-6.9,0-12.6,5.4-13.1,12.2C20.4,39.5,16,44.8,16,51.1
				c0,1,0.1,2,0.3,2.9c-3.6,2.4-5.9,6.4-5.9,11c0,2.8,0.9,5.4,2.4,7.5c-1.5,2.1-2.4,4.7-2.4,7.5c0,4.6,2.3,8.6,5.9,11
				c-0.2,0.9-0.3,1.9-0.3,2.9c0,6.3,4.4,11.6,10.4,12.9c0.5,6.8,6.2,12.2,13.1,12.2c0.6,0,1.1,0,1.6-0.1c1.6,5.4,6.7,9.4,12.6,9.4
				c2,0,3.9-0.5,5.6-1.2c2.2,4.3,6.6,7.3,11.8,7.3c3.4,0,6.5-1.3,8.8-3.4c2.4,3.4,6.3,5.6,10.7,5.6c4.4,0,8.3-2.2,10.7-5.6
				c2.3,2.1,5.4,3.4,8.8,3.4c5.1,0,9.6-3,11.8-7.3c1.7,0.8,3.6,1.2,5.6,1.2c5.9,0,11-4,12.6-9.4c0.5,0.1,1.1,0.1,1.6,0.1
				c6.9,0,12.6-5.4,13.1-12.2c5.9-1.3,10.4-6.6,10.4-12.9c0-1-0.1-2-0.3-2.9c3.6-2.4,5.9-6.4,5.9-11c0-2.8-0.9-5.4-2.4-7.5
				C169.7,70.4,170.6,67.8,170.6,65z M129,102c-0.5-0.1-1.1-0.1-1.6-0.1c-5.1,0-9.6,3-11.8,7.3c-1.7-0.8-3.6-1.2-5.6-1.2
				c-4.4,0-8.3,2.2-10.7,5.6c-2.3-2.1-5.4-3.4-8.8-3.4c-3.4,0-6.5,1.3-8.8,3.4c-2.4-3.4-6.3-5.6-10.7-5.6c-2,0-3.9,0.5-5.6,1.2
				c-2.2-4.3-6.6-7.3-11.8-7.3c-0.6,0-1.1,0-1.6,0.1c-1.4-4.5-5.1-8.1-9.8-9.1c-0.3-4.2-2.5-7.8-5.8-10c0.2-0.9,0.3-1.9,0.3-2.9
				c0-2.8-0.9-5.4-2.4-7.5c1.5-2.1,2.4-4.7,2.4-7.5c0-1-0.1-2-0.3-2.9c3.3-2.2,5.5-5.8,5.8-10c4.7-1,8.4-4.5,9.8-9.1
				c0.5,0.1,1.1,0.1,1.6,0.1c5.1,0,9.6-3,11.8-7.3C67.1,36.6,69,37,71,37c4.4,0,8.3-2.2,10.7-5.6c2.3,2.1,5.4,3.4,8.8,3.4
				s6.5-1.3,8.8-3.4c2.4,3.4,6.3,5.6,10.7,5.6c2,0,3.9-0.5,5.6-1.2c2.2,4.3,6.6,7.3,11.8,7.3c0.6,0,1.1,0,1.6-0.1
				c1.4,4.5,5.1,8.1,9.8,9.1c0.3,4.2,2.5,7.8,5.8,10c-0.2,0.9-0.3,1.9-0.3,2.9c0,2.8,0.9,5.4,2.4,7.5c-1.5,2.1-2.4,4.7-2.4,7.5
				c0,1,0.1,2,0.3,2.9c-3.3,2.2-5.5,5.8-5.8,10C134.1,94,130.3,97.5,129,102z"/>
		</g>
	</g>
</g>
<g>
	<g>
		<g>
			<g>
				<path class="st0" d="M48.8,179l-4.5,7.8c-2.5,4.3-8,5.8-12.3,3.3c-4.3-2.5-5.8-8-3.3-12.3l4.5-7.8L48.8,179z"/>
				<path class="st3" d="M36.5,191.8c-1.6,0-3.3-0.4-4.7-1.3c-4.5-2.6-6.1-8.4-3.5-13l4.8-8.2l16.5,9.5l-4.8,8.2
					c-1.3,2.2-3.3,3.8-5.8,4.4C38.1,191.7,37.3,191.8,36.5,191.8z M33.4,170.7l-4.3,7.4c-1.1,2-1.4,4.3-0.8,6.5c0.6,2.2,2,4,4,5.2
					c2,1.1,4.3,1.4,6.5,0.8c2.2-0.6,4-2,5.2-4l4.3-7.4L33.4,170.7z"/>
			</g>
			<g>
				<path class="st0" d="M132.2,179l4.5,7.8c2.5,4.3,8,5.8,12.3,3.3c4.3-2.5,5.8-8,3.3-12.3l-4.5-7.8L132.2,179z"/>
				<path class="st3" d="M144.5,191.8c-0.8,0-1.7-0.1-2.5-0.3c-2.5-0.7-4.5-2.2-5.8-4.4l-4.8-8.2l16.5-9.5l4.8,8.2
					c2.6,4.5,1.1,10.4-3.5,13C147.8,191.3,146.2,191.8,144.5,191.8z M132.9,179.2l4.3,7.4c1.1,2,3,3.4,5.2,4
					c2.2,0.6,4.5,0.3,6.5-0.8c4.1-2.3,5.5-7.6,3.1-11.6l-4.3-7.4L132.9,179.2z"/>
			</g>
		</g>
		<g>
			<g>
				<rect x="99.5" y="225.5" width="27" height="9"/>
				<path d="M126.5,235h-27c-0.3,0-0.5-0.2-0.5-0.5v-9c0-0.3,0.2-0.5,0.5-0.5h27c0.3,0,0.5,0.2,0.5,0.5v9
					C127,234.8,126.8,235,126.5,235z M100,234h26v-8h-26V234z"/>
			</g>
			<g>
				<rect x="54.5" y="225.5" width="27" height="9"/>
				<path d="M81.5,235h-27c-0.3,0-0.5-0.2-0.5-0.5v-9c0-0.3,0.2-0.5,0.5-0.5h27c0.3,0,0.5,0.2,0.5,0.5v9C82,234.8,81.8,235,81.5,235
					z M55,234h26v-8H55V234z"/>
			</g>
			<g>
				<path class="st4" d="M126.5,187h-72c-1.4,0-2.5,1.1-2.5,2.5v36c0,1.4,1.1,2.5,2.5,2.5h27c1.4,0,2.5-1.1,2.5-2.5V201h13v24.5
					c0,1.4,1.1,2.5,2.5,2.5h27c1.4,0,2.5-1.1,2.5-2.5v-36C129,188.1,127.9,187,126.5,187z"/>
				<path class="st5" d="M126.5,228.5h-27c-1.7,0-3-1.3-3-3v-24h-12v24c0,1.7-1.3,3-3,3h-27c-1.7,0-3-1.3-3-3v-36c0-1.7,1.3-3,3-3
					h72c1.7,0,3,1.3,3,3v36C129.5,227.2,128.2,228.5,126.5,228.5z M83.5,200.5h14v25c0,1.1,0.9,2,2,2h27c1.1,0,2-0.9,2-2v-36
					c0-1.1-0.9-2-2-2h-72c-1.1,0-2,0.9-2,2v36c0,1.1,0.9,2,2,2h27c1.1,0,2-0.9,2-2V200.5z"/>
			</g>
		</g>
	</g>
	<g>
		<path class="st6" d="M152.1,167.5l-22.5-39c-0.1-0.2-0.2-0.3-0.3-0.5c-0.1-0.1-0.2-0.3-0.3-0.4c-0.2-0.2-0.3-0.5-0.5-0.7
			c-0.1-0.1-0.2-0.2-0.3-0.4c-0.2-0.2-0.4-0.5-0.7-0.7c-0.1-0.1-0.2-0.2-0.2-0.3c-0.2-0.2-0.5-0.4-0.7-0.6c-0.1-0.1-0.2-0.2-0.3-0.3
			c-0.2-0.2-0.5-0.4-0.7-0.5c-0.1-0.1-0.3-0.2-0.4-0.3c-0.2-0.1-0.4-0.3-0.7-0.4c-0.2-0.1-0.4-0.2-0.6-0.3c-0.2-0.1-0.4-0.2-0.6-0.3
			c-0.2-0.1-0.5-0.2-0.7-0.3c-0.2-0.1-0.4-0.1-0.5-0.2c-0.3-0.1-0.5-0.2-0.8-0.3c-0.2,0-0.3-0.1-0.5-0.1c-0.3-0.1-0.5-0.1-0.7-0.2
			c-0.2,0-0.4-0.1-0.6-0.1c-0.2,0-0.5-0.1-0.7-0.1c-0.2,0-0.5,0-0.7,0c-0.2,0-0.3,0-0.5,0h-54c-0.2,0-0.3,0-0.5,0
			c-0.2,0-0.4,0-0.7,0c-0.3,0-0.5,0.1-0.7,0.1c-0.2,0-0.4,0.1-0.6,0.1c-0.3,0-0.5,0.1-0.8,0.2c-0.2,0-0.3,0.1-0.5,0.1
			c-0.3,0.1-0.5,0.2-0.8,0.3c-0.2,0.1-0.3,0.1-0.5,0.2c-0.3,0.1-0.5,0.2-0.8,0.3c-0.2,0.1-0.3,0.2-0.5,0.2c-0.2,0.1-0.4,0.2-0.6,0.4
			c-0.2,0.1-0.4,0.2-0.6,0.4c-0.2,0.1-0.3,0.2-0.5,0.3c-0.2,0.1-0.4,0.3-0.6,0.5c-0.1,0.1-0.3,0.2-0.4,0.4c-0.2,0.2-0.4,0.4-0.6,0.5
			c-0.1,0.1-0.3,0.3-0.4,0.4c-0.2,0.2-0.3,0.4-0.5,0.6c-0.1,0.2-0.3,0.3-0.4,0.5c-0.1,0.2-0.3,0.4-0.4,0.5c-0.1,0.2-0.3,0.4-0.4,0.6
			c-0.1,0.1-0.2,0.3-0.3,0.4l-22.5,39c-0.7,1.1-0.8,2.5-0.5,3.8c0.3,1.3,1.2,2.4,2.3,3l15.6,9c1,0.6,2.1,0.8,3.2,0.6v5.6
			c0,2.8,2.2,5,5,5h72c2.8,0,5-2.2,5-5v-5.6c1.1,0.2,2.2,0,3.2-0.6l15.6-9c1.1-0.7,2-1.8,2.3-3C153,170,152.8,168.6,152.1,167.5z"/>
		<g>
			<path class="st7" d="M152.6,167.2l-22.5-39c-0.1-0.2-0.2-0.3-0.3-0.6c-0.1-0.2-0.2-0.3-0.3-0.5c-0.2-0.2-0.4-0.5-0.5-0.7
				c-0.1-0.1-0.2-0.2-0.3-0.4c-0.2-0.2-0.4-0.5-0.7-0.7c-0.1-0.1-0.2-0.2-0.3-0.3c-0.2-0.2-0.5-0.4-0.7-0.7
				c-0.1-0.1-0.2-0.2-0.3-0.3c-0.2-0.2-0.5-0.4-0.7-0.5c-0.1-0.1-0.3-0.2-0.4-0.3c-0.2-0.1-0.4-0.3-0.7-0.4
				c-0.2-0.1-0.4-0.2-0.6-0.3c-0.2-0.1-0.4-0.2-0.6-0.3c-0.2-0.1-0.5-0.2-0.7-0.3c-0.2-0.1-0.4-0.1-0.5-0.2
				c-0.3-0.1-0.5-0.2-0.8-0.3c-0.2,0-0.4-0.1-0.6-0.1c-0.3-0.1-0.5-0.1-0.8-0.2c-0.2,0-0.4-0.1-0.6-0.1c-0.3,0-0.5-0.1-0.8-0.1
				c-0.2,0-0.5,0-0.7,0c-0.2,0-0.4,0-0.5,0h-54c-0.2,0-0.4,0-0.6,0c-0.2,0-0.4,0-0.7,0c-0.3,0-0.5,0.1-0.7,0.1
				c-0.2,0-0.4,0.1-0.6,0.1c-0.3,0.1-0.6,0.1-0.8,0.2c-0.2,0-0.3,0.1-0.5,0.1c-0.3,0.1-0.6,0.2-0.8,0.3c-0.2,0.1-0.3,0.1-0.5,0.2
				c-0.3,0.1-0.5,0.2-0.8,0.3c-0.2,0.1-0.4,0.2-0.5,0.3c-0.2,0.1-0.5,0.2-0.7,0.4c-0.2,0.1-0.4,0.2-0.6,0.4
				c-0.2,0.1-0.4,0.2-0.5,0.4c-0.2,0.2-0.4,0.3-0.6,0.5c-0.2,0.1-0.3,0.2-0.4,0.4c-0.2,0.2-0.4,0.4-0.6,0.6
				c-0.1,0.1-0.3,0.3-0.4,0.4c-0.2,0.2-0.3,0.4-0.5,0.6c-0.1,0.2-0.3,0.3-0.4,0.5c-0.1,0.2-0.3,0.4-0.4,0.6
				c-0.1,0.2-0.3,0.4-0.4,0.6c-0.1,0.1-0.2,0.3-0.3,0.4l-22.5,39c-0.7,1.3-0.9,2.8-0.6,4.2c0.4,1.4,1.3,2.6,2.6,3.3l15.6,9
				c0.9,0.5,1.9,0.8,3,0.7v5c0,2.9,2.2,5.2,5,5.5v0h0.5H82h44.5c3,0,5.5-2.5,5.5-5.5v-5c1,0,2.1-0.2,3-0.7l15.6-9
				c1.3-0.7,2.2-1.9,2.6-3.3C153.5,170,153.3,168.5,152.6,167.2z M81,194H55v-10.8L68.2,172H81V194z M101.3,171.7h12.8l13.2,11.2
				v10.8h-26V171.7z M152.1,171.1c-0.3,1.2-1.1,2.1-2.1,2.7l-15.6,9c-0.8,0.4-1.6,0.6-2.5,0.6v-26.5c0-0.3-0.2-0.5-0.5-0.5
				s-0.5,0.2-0.5,0.5v32.6c0,1.9-1.1,3.5-2.7,4.1v-11.2l-13.8-11.8h-13.2v-26.5c0-0.3-0.2-0.5-0.5-0.5s-0.5,0.2-0.5,0.5V194H82
				v-49.5c0-0.3-0.2-0.5-0.5-0.5s-0.5,0.2-0.5,0.5V171H67.8L54,182.8v11.2c-2.2-0.3-4-2.1-4-4.4v-32.6c0-0.3-0.2-0.5-0.5-0.5
				s-0.5,0.2-0.5,0.5v26.5c-0.9,0-1.7-0.2-2.5-0.6l-15.6-9c-1-0.6-1.8-1.6-2.1-2.7c-0.3-1.1-0.1-2.4,0.4-3.4l22.5-39
				c0.1-0.1,0.2-0.3,0.2-0.4c0.1-0.2,0.3-0.4,0.4-0.6c0.1-0.2,0.3-0.4,0.4-0.5c0.1-0.2,0.3-0.3,0.4-0.5c0.2-0.2,0.3-0.4,0.5-0.5
				c0.1-0.1,0.3-0.3,0.4-0.4c0.2-0.2,0.4-0.3,0.6-0.5c0.1-0.1,0.3-0.2,0.4-0.3c0.2-0.2,0.4-0.3,0.6-0.4c0.2-0.1,0.3-0.2,0.5-0.3
				c0.2-0.1,0.4-0.2,0.6-0.3c0.2-0.1,0.4-0.2,0.6-0.3c0.1-0.1,0.3-0.2,0.5-0.2c0.2-0.1,0.5-0.2,0.7-0.3c0.2-0.1,0.3-0.1,0.5-0.2
				c0.2-0.1,0.5-0.2,0.8-0.2c0.2,0,0.3-0.1,0.5-0.1c0.3-0.1,0.5-0.1,0.8-0.2c0.2,0,0.4-0.1,0.6-0.1c0.2,0,0.4-0.1,0.7-0.1
				c0.2,0,0.4,0,0.6,0c0.2,0,0.3,0,0.5,0h54c0.2,0,0.3,0,0.5,0c0.2,0,0.4,0,0.7,0c0.2,0,0.5,0,0.7,0.1c0.2,0,0.4,0.1,0.6,0.1
				c0.2,0,0.5,0.1,0.7,0.2c0.2,0,0.4,0.1,0.5,0.1c0.3,0.1,0.5,0.2,0.8,0.2c0.2,0.1,0.3,0.1,0.5,0.2c0.2,0.1,0.4,0.2,0.7,0.3
				c0.2,0.1,0.4,0.2,0.5,0.3c0.2,0.1,0.4,0.2,0.6,0.3c0.2,0.1,0.4,0.2,0.6,0.4c0.1,0.1,0.3,0.2,0.4,0.3c0.2,0.2,0.5,0.3,0.7,0.5
				l0.3,0.3c0.2,0.2,0.5,0.4,0.7,0.6c0.1,0.1,0.2,0.2,0.2,0.2c0.2,0.3,0.4,0.5,0.6,0.7c0.1,0.1,0.2,0.2,0.3,0.4
				c0.2,0.2,0.3,0.4,0.5,0.7c0.1,0.1,0.2,0.3,0.3,0.4c0.1,0.2,0.2,0.4,0.3,0.5l22.5,39C152.3,168.7,152.5,170,152.1,171.1z"/>
			<path class="st7" d="M58.5,167h19v-19h-19V167z M59.5,149h17v17h-17V149z"/>
		</g>
		<g>
			<path class="st8" d="M121.4,150.6h-5.2c-0.4,0-0.7,0.3-0.7,0.7c0,0.1,0,0.2,0.1,0.3l2.6,4.5c0.1,0.2,0.3,0.3,0.6,0.3
				c0.3,0,0.5-0.1,0.6-0.3l2.6-4.5c0.1-0.1,0.1-0.2,0.1-0.3C122.1,150.9,121.8,150.6,121.4,150.6"/>
			<path class="st8" d="M122.5,151c0-0.2,0.2-0.4,0.4-0.4c0.2,0,0.4,0.2,0.4,0.4c0,0.2-0.2,0.4-0.4,0.4
				C122.7,151.4,122.5,151.2,122.5,151 M122.6,151c0,0.2,0.1,0.3,0.3,0.3c0.2,0,0.3-0.1,0.3-0.3c0-0.2-0.1-0.3-0.3-0.3
				C122.7,150.7,122.6,150.8,122.6,151"/>
			<path class="st8" d="M123,151.2L123,151.2C123,151.2,123,151.2,123,151.2l-0.2-0.1h0v0.1c0,0,0,0,0,0h0c0,0,0,0,0,0v-0.3
				c0,0,0,0,0,0h0.1c0.1,0,0.1,0,0.1,0c0,0,0,0.1,0,0.1c0,0.1,0,0.1-0.1,0.1L123,151.2C123,151.2,123,151.2,123,151.2 M122.9,150.9
				c0,0-0.1,0-0.1,0v0.1h0.1c0,0,0,0,0,0C122.9,151,122.9,151,122.9,150.9C122.9,150.9,122.9,150.9,122.9,150.9"/>
			<path class="st8" d="M113.4,157C113.4,157,113.4,157,113.4,157L113.4,157L113.4,157z M117.9,157.1L117.9,157.1l-3.2-5.6l-0.1-0.1
				c-0.3-0.5-0.8-0.8-1.4-0.8h-2.7c-0.3,0-0.5,0.2-0.5,0.5c0,0.1,0,0.2,0.1,0.3l3.2,5.6c0.1,0.3,0.2,0.5,0.2,0.9
				c0,0.3-0.1,0.6-0.2,0.8l-2.8,4.9c0,0.1-0.1,0.2-0.1,0.3c0,0.3,0.2,0.5,0.5,0.5h2.7c0.6,0,1.1-0.3,1.4-0.8l0.1-0.1l2.7-4.7
				l0.1-0.1c0.1-0.2,0.2-0.5,0.2-0.8C118.2,157.6,118.1,157.3,117.9,157.1"/>
			<path class="st8" d="M110.5,159.4c0,0-0.1,0-0.1,0c-0.2,0-0.3,0.1-0.5,0.1c-0.1,0-0.2,0-0.2,0c-0.1-0.1-0.1-0.2-0.1-0.4h1
				c0.1,0,0.2,0,0.2-0.3c0-0.3,0-0.5-0.2-0.7c-0.1-0.2-0.3-0.3-0.7-0.3c-0.4,0-0.6,0.1-0.7,0.3c-0.1,0.2-0.2,0.4-0.2,0.8
				c0,0.4,0.1,0.7,0.2,0.8c0.1,0.1,0.4,0.2,0.7,0.2c0.2,0,0.4,0,0.6-0.1c0.1,0,0.1-0.1,0.1-0.2c0,0,0-0.1,0-0.1
				C110.6,159.4,110.5,159.4,110.5,159.4 M109.4,158.6c0-0.3,0.1-0.4,0.4-0.4c0.3,0,0.3,0.1,0.3,0.4v0.1L109.4,158.6L109.4,158.6z
				 M108,157.8c-0.2,0-0.4,0.1-0.6,0.1v-0.8c0-0.1,0-0.2-0.2-0.2h-0.2c-0.1,0-0.2,0-0.2,0.2v2.5c0,0.1,0,0.2,0.1,0.2h0.2
				c0.1,0,0.2-0.1,0.2-0.2v-0.9c0-0.3,0.1-0.4,0.4-0.4c0.3,0,0.3,0.1,0.3,0.4v0.1h0c0,0,0,0.1,0,0.1v0.8c0,0.1,0,0.2,0.1,0.2h0.2
				c0.1,0,0.2-0.1,0.2-0.2v-1.3C108.6,158.1,108.5,157.8,108,157.8"/>
			<path class="st8" d="M106.4,158.3H106v0.8c0,0.2,0,0.3,0,0.3c0,0,0,0,0.1,0c0.1,0,0.2-0.1,0.3-0.1c0.1,0,0.1,0.1,0.1,0.1v0.1
				c0,0.2,0,0.2-0.2,0.2c-0.1,0-0.2,0-0.4,0c-0.4,0-0.5-0.2-0.5-0.7v-0.9h-0.1c-0.1,0-0.1-0.1-0.1-0.1V158c0-0.1,0-0.1,0.1-0.1h0.1
				v-0.3c0-0.1,0.1-0.2,0.2-0.2h0.2c0.1,0,0.2,0.1,0.2,0.2v0.3h0.4c0.1,0,0.1,0,0.1,0.1v0.1C106.5,158.3,106.5,158.3,106.4,158.3"/>
			<path class="st8" d="M116.1,163.1l0.3,0.5l0.3,0.2c0,0,0.1,0.1,0,0.1l0,0.1c0,0-0.1,0.1-0.1,0l-0.3-0.2l-0.7,0c0,0,0,0,0,0
				c0,0,0-0.1,0-0.1l0-0.1c0,0,0,0,0.1,0l0.4,0l-0.2-0.4c0,0,0-0.1,0-0.1l0-0.1C116,163,116.1,163,116.1,163.1
				C116.1,163,116.1,163.1,116.1,163.1"/>
			<path class="st8" d="M117.5,162.6L117.5,162.6c-0.1,0.1-0.1,0.1-0.1,0.1l-0.6-0.3c0,0,0.1,0.1,0.1,0.1c0.1,0.1,0.2,0.3,0.3,0.3
				c0,0,0,0.1,0,0.1l0,0c0,0-0.1,0.1-0.1,0c-0.1,0-0.3,0-0.4-0.1c0,0-0.1,0-0.1,0l0.5,0.4c0,0,0,0.1,0,0.1l0,0.1c0,0-0.1,0.1-0.1,0
				l-0.8-0.5c0,0,0-0.1,0-0.1l0-0.1c0,0,0-0.1,0.1,0c0.2,0,0.4,0.1,0.6,0.1c-0.1-0.2-0.3-0.4-0.4-0.5c0,0,0-0.1,0-0.1l0-0.1
				c0,0,0-0.1,0.1,0l0.8,0.4C117.6,162.5,117.6,162.5,117.5,162.6"/>
			<path class="st8" d="M118,161.8c0,0.1,0,0.1-0.1,0.2c0,0.1-0.1,0.1-0.1,0.2c-0.2,0.2-0.4,0.1-0.6,0c-0.4-0.2-0.4-0.4-0.3-0.7
				c0-0.1,0.1-0.1,0.1-0.2c0-0.1,0.1-0.1,0.1,0l0,0c0,0,0.1,0,0,0.1c0,0.1-0.1,0.1-0.1,0.1c0,0-0.1,0.1-0.1,0.2
				c0,0.1,0.1,0.2,0.3,0.3c0.2,0.1,0.3,0.2,0.4,0c0,0,0-0.1,0.1-0.1c0-0.1,0.1-0.1,0.1-0.2c0,0,0,0,0.1,0l0,0
				C118,161.8,118,161.8,118,161.8"/>
			<path class="st8" d="M118.5,160.9L118.5,160.9c-0.1,0.1-0.1,0.1-0.1,0.1l-0.2,0c0,0.1-0.1,0.1-0.1,0.2c0,0.1-0.1,0.1-0.1,0.2
				l0.1,0.2c0,0,0,0.1,0,0.1l0,0.1c0,0,0,0-0.1,0c0,0,0,0,0,0l-0.6-0.7c0,0,0-0.1,0-0.1l0-0.1c0-0.1,0.1-0.1,0.1,0L118.5,160.9
				C118.5,160.9,118.5,160.9,118.5,160.9C118.5,160.9,118.5,160.9,118.5,160.9 M117.6,160.9l0.3,0.3c0,0,0-0.1,0.1-0.1
				c0,0,0-0.1,0.1-0.1L117.6,160.9z"/>
		</g>
	</g>
	<g>
		<g>
			<g>
				<path class="st6" d="M90.5,0.5c-49.7,0-90,32.2-90,72c0,39.8,40.3,72,90,72s90-32.2,90-72C180.5,32.7,140.2,0.5,90.5,0.5z
					 M90.5,126.5c-39.8,0-72-24.2-72-54s32.2-54,72-54s72,24.2,72,54S130.3,126.5,90.5,126.5z"/>
				<path class="st7" d="M90.5,145C40.6,145,0,112.5,0,72.5S40.6,0,90.5,0S181,32.5,181,72.5S140.4,145,90.5,145z M90.5,1
					C41.1,1,1,33.1,1,72.5S41.1,144,90.5,144S180,111.9,180,72.5S139.9,1,90.5,1z"/>
			</g>
			<path class="st8" d="M175.7,64.5c0-4.9-2.5-9.2-6.3-11.7c0.2-1,0.4-2,0.4-3.1c0-6.7-4.7-12.3-11-13.7c-0.5-7.2-6.6-13-13.9-13
				c-0.6,0-1.2,0-1.7,0.1c-1.7-5.8-7.1-10-13.4-10c-2.1,0-4.1,0.5-5.9,1.3c-2.3-4.6-7-7.7-12.5-7.7c-3.6,0-6.9,1.4-9.4,3.6
				c-2.5-3.6-6.7-5.9-11.4-5.9s-8.9,2.3-11.4,5.9c-2.5-2.3-5.8-3.6-9.4-3.6c-5.5,0-10.2,3.2-12.5,7.7c-1.8-0.8-3.8-1.3-5.9-1.3
				c-6.3,0-11.7,4.2-13.4,10c-0.6-0.1-1.1-0.1-1.7-0.1c-7.4,0-13.4,5.7-13.9,13c-6.3,1.4-11,7-11,13.7c0,1.1,0.1,2.1,0.4,3.1
				c-3.8,2.5-6.3,6.8-6.3,11.7c0,3,0.9,5.7,2.5,8c-1.6,2.3-2.5,5-2.5,8c0,4.9,2.5,9.2,6.3,11.7c-0.2,1-0.4,2-0.4,3.1
				c0,6.7,4.7,12.3,11,13.7c0.5,7.2,6.6,13,13.9,13c0.6,0,1.2,0,1.7-0.1c1.7,5.8,7.1,10,13.4,10c2.1,0,4.1-0.5,5.9-1.3
				c2.3,4.6,7,7.7,12.5,7.7c3.6,0,6.9-1.4,9.4-3.6c2.5,3.6,6.7,5.9,11.4,5.9s8.9-2.3,11.4-5.9c2.5,2.3,5.8,3.6,9.4,3.6
				c5.5,0,10.2-3.2,12.5-7.7c1.8,0.8,3.8,1.3,5.9,1.3c6.3,0,11.7-4.2,13.4-10c0.6,0.1,1.1,0.1,1.7,0.1c7.4,0,13.4-5.7,13.9-13
				c6.3-1.4,11-7,11-13.7c0-1.1-0.1-2.1-0.4-3.1c3.8-2.5,6.3-6.8,6.3-11.7c0-3-0.9-5.7-2.5-8C174.8,70.2,175.7,67.5,175.7,64.5z
				 M131.4,103.9c-0.6-0.1-1.1-0.1-1.7-0.1c-5.5,0-10.2,3.2-12.5,7.7c-1.8-0.8-3.8-1.3-5.9-1.3c-4.7,0-8.9,2.3-11.4,5.9
				c-2.5-2.3-5.8-3.6-9.4-3.6s-6.9,1.4-9.4,3.6c-2.5-3.6-6.7-5.9-11.4-5.9c-2.1,0-4.1,0.5-5.9,1.3c-2.3-4.6-7-7.7-12.5-7.7
				c-0.6,0-1.2,0-1.7,0.1c-1.4-4.8-5.4-8.6-10.4-9.7c-0.3-4.4-2.7-8.3-6.2-10.7c0.2-1,0.4-2,0.4-3.1c0-3-0.9-5.7-2.5-8
				c1.6-2.3,2.5-5,2.5-8c0-1.1-0.1-2.1-0.4-3.1c3.5-2.3,5.9-6.2,6.2-10.7c5-1.1,9-4.8,10.4-9.7c0.6,0.1,1.1,0.1,1.7,0.1
				c5.5,0,10.2-3.2,12.5-7.7c1.8,0.8,3.8,1.3,5.9,1.3c4.7,0,8.9-2.3,11.4-5.9c2.5,2.3,5.8,3.6,9.4,3.6s6.9-1.4,9.4-3.6
				c2.5,3.6,6.7,5.9,11.4,5.9c2.1,0,4.1-0.5,5.9-1.3c2.3,4.6,7,7.7,12.5,7.7c0.6,0,1.2,0,1.7-0.1c1.4,4.8,5.4,8.6,10.4,9.7
				c0.3,4.4,2.7,8.3,6.2,10.7c-0.2,1-0.4,2-0.4,3.1c0,3,0.9,5.7,2.5,8c-1.6,2.3-2.5,5-2.5,8c0,1.1,0.1,2.1,0.4,3.1
				c-3.5,2.3-5.9,6.2-6.2,10.7C136.9,95.3,132.9,99.1,131.4,103.9z"/>
		</g>
		<path d="M126.5,43c-9.5,0-17.9,4.5-23.3,11.5H77.8C72.4,47.5,64,43,54.5,43C38.2,43,25,56.2,25,72.5S38.2,102,54.5,102
			c13.1,0,24.3-8.6,28.1-20.5h15.8c3.8,11.9,15,20.5,28.1,20.5c16.3,0,29.5-13.2,29.5-29.5S142.8,43,126.5,43z M54.5,97
			C41,97,30,86,30,72.5S41,48,54.5,48S79,59,79,72.5S68,97,54.5,97z M126.5,97C113,97,102,86,102,72.5S113,48,126.5,48
			S151,59,151,72.5S140,97,126.5,97z"/>
	</g>
	<linearGradient id="SVGID_3_" gradientUnits="userSpaceOnUse" x1="90.5" y1="97" x2="90.5" y2="48">
		<stop  offset="0" style="stop-color:#0089CF"/>
		<stop  offset="1" style="stop-color:#00AB95"/>
	</linearGradient>
	<path class="st9" d="M54.5,97C41,97,30,86,30,72.5S41,48,54.5,48S79,59,79,72.5S68,97,54.5,97z M126.5,97C113,97,102,86,102,72.5
		S113,48,126.5,48S151,59,151,72.5S140,97,126.5,97z"/>
</g>
<linearGradient id="SVGID_4_" gradientUnits="userSpaceOnUse" x1="38.9436" y1="88.0564" x2="70.0564" y2="56.9436">
	<stop  offset="0" style="stop-color:#FFFFFF;stop-opacity:0.5"/>
	<stop  offset="1" style="stop-color:#FFFFFF;stop-opacity:0"/>
</linearGradient>
<circle class="st10" cx="54.5" cy="72.5" r="22"/>
<linearGradient id="SVGID_5_" gradientUnits="userSpaceOnUse" x1="110.9436" y1="88.0564" x2="142.0564" y2="56.9436">
	<stop  offset="0" style="stop-color:#FFFFFF;stop-opacity:0.5"/>
	<stop  offset="1" style="stop-color:#FFFFFF;stop-opacity:0"/>
</linearGradient>
<circle class="st11" cx="126.5" cy="72.5" r="22"/>
</svg>
